<?xml version="1.0" encoding="UTF-8" standalone="no"?>
<!DOCTYPE svg PUBLIC "-//W3C//DTD SVG 1.1//EN"
 "http://www.w3.org/Graphics/SVG/1.1/DTD/svg11.dtd">
<!-- Generated by graphviz version 2.30.1 (20130221.2233)
 -->
<!-- Title: G Pages: 1 -->
<svg width="156pt" height="97pt"
 viewBox="0.00 0.00 156.00 97.00" xmlns="http://www.w3.org/2000/svg" xmlns:xlink="http://www.w3.org/1999/xlink">
<g id="graph0" class="graph" transform="scale(1 1) rotate(0) translate(4 93)">
<title>G</title>
<polygon fill="white" stroke="white" points="-4,5 -4,-93 153,-93 153,5 -4,5"/>
<g id="clust1" class="cluster"><title>cluster_Global</title>
<path fill="none" stroke="gray" d="M20,-8C20,-8 128,-8 128,-8 134,-8 140,-14 140,-20 140,-20 140,-69 140,-69 140,-75 134,-81 128,-81 128,-81 20,-81 20,-81 14,-81 8,-75 8,-69 8,-69 8,-20 8,-20 8,-14 14,-8 20,-8"/>
<text text-anchor="middle" x="74" y="-66" font-family="Times,serif" font-size="11.00" fill="gray">\</text>
</g>
<!-- \\AsyncController -->
<g id="node1" class="node"><title>\\AsyncController</title>
<polygon fill="none" stroke="black" points="131.516,-52 16.4839,-52 16.4839,-16 131.516,-16 131.516,-52"/>
<text text-anchor="middle" x="74" y="-29.6" font-family="Courier,monospace" font-size="11.00">AsyncController</text>
</g>
</g>
</svg>
